# xmcd
#
# Track frame offsets: 
#        182
#        14805
#        36080
#        50587
#        64360
#        80970
#        101460
#        121627
#        138905
#        151167
#
# Disc length: 2264 seconds
#
# Revision: 2
# Processed by: cddbd v1.4PL0 Copyright (c) Steve Scherf et al.
# Submitted via: ExactAudioCopy v0.95a3
#
DISCID=8408d60a
DTITLE=Greg Graffin - American Lesion
DYEAR=1900
DGENRE=Folk/Rock
TTITLE0=Opinion
TTITLE1=Fate's Cruel Hand
TTITLE2=Predicament
TTITLE3=The Fault Line
TTITLE4=When I Fail
TTITLE5=Cease
TTITLE6=Maybe She Will
TTITLE7=The Elements
TTITLE8=In The Mirror
TTITLE9=Back To Earth
EXTD=
EXTT0=
EXTT1=
EXTT2=
EXTT3=
EXTT4=
EXTT5=
EXTT6=
EXTT7=
EXTT8=
EXTT9=
PLAYORDER=
